{"accessors":[{"bufferView":0,"componentType":5126,"count":2210,"max":[9.98867321014404,10.0,9.98867321014404],"min":[-9.98867321014404,-10.0,-9.98867321014404],"normalized":false,"type":"VEC3"},{"bufferView":1,"componentType":5126,"count":2210,"max":[1.0,0.0,1.0,1.0],"min":[-1.0,-0.0000215795153053477,-1.0,1.0],"normalized":false,"type":"VEC4"},{"bufferView":2,"componentType":5126,"count":2210,"max":[0.998868048191071,1.0,0.998868048191071],"min":[-0.998868823051453,-1.0,-0.998867213726044],"normalized":false,"type":"VEC3"},{"bufferView":3,"componentType":5126,"count":2210,"max":[1.0,1.0],"min":[0.0,0.0],"normalized":false,"type":"VEC2"},{"bufferView":4,"componentType":5123,"count":12672,"max":[2209.0],"min":[0.0],"normalized":false,"type":"SCALAR"}],"asset":{"generator":"Godot Engine v4.5.stable.official@876b290332ec6f2e6d173d08162a02aa7e6ca46d","version":"2.0"},"bufferViews":[{"buffer":0,"byteLength":26520,"byteStride":12,"target":34962},{"buffer":0,"byteLength":35360,"byteOffset":26520,"byteStride":16,"target":34962},{"buffer":0,"byteLength":26520,"byteOffset":61880,"byteStride":12,"target":34962},{"buffer":0,"byteLength":17680,"byteOffset":88400,"byteStride":8,"target":34962},{"buffer":0,"byteLength":25344,"byteOffset":106080,"target":34963}],"buffers":[{"byteLength":131424,"uri":"planet_template0.bin"}],"extensions":{"OMI_physics_shape":{"shapes":[{"sphere":{"radius":10.0500001907349},"type":"sphere"},{"sphere":{"radius":50.0},"type":"sphere"}]}},"extensionsUsed":["GODOT_single_root","OMI_physics_body","OMI_physics_shape"],"materials":[{}],"meshes":[{"primitives":[{"attributes":{"NORMAL":2,"POSITION":0,"TANGENT":1,"TEXCOORD_0":3},"indices":4,"material":0,"mode":4}]}],"nodes":[{"children":[1,2,3,5,6,8],"extensions":{"OMI_physics_body":{"motion":{"type":"static"}}},"name":"Planet"},{"mesh":0,"name":"MeshInstance3D"},{"extensions":{"OMI_physics_body":{"collider":{"shape":0}}},"name":"surface"},{"children":[4],"extensions":{"OMI_physics_body":{"trigger":{"nodes":[4.0]}}},"name":"Gravity Field"},{"extensions":{"OMI_physics_body":{"trigger":null}},"name":"CollisionShape3D"},{"name":"refuel_pad"},{"children":[7],"name":"spawner_pivot"},{"name":"sample_spawner"},{"name":"GPUParticlesCollisionSphere3D"}],"scene":0,"scenes":[{"nodes":[0]}]}